<svg xmlns="http://www.w3.org/2000/svg" version="1.1" xmlns:xlink="http://www.w3.org/1999/xlink" xmlns:svgjs="http://svgjs.dev/svgjs" width="2000" height="227" viewBox="0 0 2000 227">
    <g transform="matrix(1,0,0,1,-1.2121212121212466,0.34411476670304353)"><svg viewBox="0 0 396 45" data-background-color="#ffffff" preserveAspectRatio="xMidYMid meet" height="227" width="2000" xmlns="http://www.w3.org/2000/svg" xmlns:xlink="http://www.w3.org/1999/xlink">
        <g id="tight-bounds" transform="matrix(1,0,0,1,0.2400000000000091,-0.06821658370765249)">
            <svg viewBox="0 0 395.52 45.13643316741532" height="45.13643316741532" width="395.52">
                <g><svg viewBox="0 0 395.52 45.13643316741532" height="45.13643316741532" width="395.52"><g><svg viewBox="0 0 395.52 45.13643316741532" height="45.13643316741532" width="395.52"><g id="textblocktransform"><svg viewBox="0 0 395.52 45.13643316741532" height="45.13643316741532" width="395.52" id="textblock"><g><svg viewBox="0 0 395.52 45.13643316741532" height="45.13643316741532" width="395.52"><g transform="matrix(1,0,0,1,0,0)"><svg width="395.52" viewBox="3.5 -35.75 411.82 47" height="45.13643316741532" data-palette-color="url(#492c41f8-1048-48cb-9c7c-500815da6e38)"></svg></g></svg></g></svg></g></svg></g></svg></g><defs></defs><mask id="f36ea8a5-6864-4a7f-a86c-a54de110d4e2"><g id="SvgjsG7929"><svg viewBox="0 0 395.52 45.13643316741532" height="45.13643316741532" width="395.52"><g><svg viewBox="0 0 395.52 45.13643316741532" height="45.13643316741532" width="395.52"><g><svg viewBox="0 0 395.52 45.13643316741532" height="45.13643316741532" width="395.52"><g id="SvgjsG7928"><svg viewBox="0 0 395.52 45.13643316741532" height="45.13643316741532" width="395.52" id="SvgjsSvg7927"><g><svg viewBox="0 0 395.52 45.13643316741532" height="45.13643316741532" width="395.52"><g transform="matrix(1,0,0,1,0,0)"><svg width="395.52" viewBox="3.5 -35.75 411.82 47" height="45.13643316741532" data-palette-color="url(#492c41f8-1048-48cb-9c7c-500815da6e38)"><path d="M11.5 0L3.5 0 3.5-35.75 33.45-35.75Q39-35.75 42.08-32.95 45.15-30.15 45.15-24.45L45.15-24.45Q45.15-18.75 42.08-15.95 39-13.15 33.45-13.15L33.45-13.15 11.5-13.15 11.5 0ZM32.5-29.25L32.5-29.25 11.5-29.25 11.5-19.7 32.5-19.65Q34.7-19.65 35.88-20.75 37.05-21.85 37.05-24.45L37.05-24.45Q37.05-27.1 35.88-28.18 34.7-29.25 32.5-29.25ZM56.75 0L49.4 0 49.4-25.75 69.1-25.75Q73.45-25.75 75.5-23.58 77.55-21.4 77.55-17.85L77.55-17.85 77.55-12.5 70.2-12.5 70.2-16.95Q70.2-19.95 67.2-19.95L67.2-19.95 56.75-19.95 56.75 0ZM105 0.25L95.75 0.25Q89.05 0.25 85.3-3.08 81.55-6.4 81.55-12.85L81.55-12.85Q81.55-19.35 85.3-22.68 89.05-26 95.75-26L95.75-26 105-26Q111.7-26 115.45-22.68 119.2-19.35 119.2-12.85L119.2-12.85Q119.2-6.4 115.45-3.08 111.7 0.25 105 0.25L105 0.25ZM95.75-5.5L95.75-5.5 105-5.5Q108.25-5.5 109.97-7.3 111.7-9.1 111.7-12.85L111.7-12.85Q111.7-16.65 109.97-18.45 108.25-20.25 105-20.25L105-20.25 95.75-20.25Q92.5-20.25 90.77-18.45 89.05-16.65 89.05-12.85L89.05-12.85Q89.05-9.1 90.77-7.3 92.5-5.5 95.75-5.5ZM148.64 0.25L122.84 0.25 122.84-5.5 147.34-5.5Q149.44-5.5 149.44-7.85L149.44-7.85Q149.44-10.15 147.34-10.15L147.34-10.15 131.49-10.15Q127.04-10.15 124.74-12.18 122.44-14.2 122.44-18L122.44-18Q122.44-21.85 124.77-23.93 127.09-26 131.49-26L131.49-26 154.29-26 154.29-20.25 131.84-20.25Q129.69-20.25 129.69-18.15L129.69-18.15Q129.69-17.1 130.29-16.5 130.89-15.9 131.84-15.9L131.84-15.9 148.64-15.9Q152.54-15.9 154.62-13.88 156.69-11.85 156.69-8L156.69-8Q156.69-4.1 154.59-1.93 152.49 0.25 148.64 0.25L148.64 0.25ZM168.19 11.25L160.94 11.25 160.94-25.75 179.44-25.75Q186.14-25.75 189.89-22.45 193.64-19.15 193.64-12.9L193.64-12.9Q193.64-6.6 189.89-3.3 186.14 0 179.44 0L179.44 0 168.19 0 168.19 11.25ZM179.44-20L179.44-20 168.19-20 168.19-5.75 179.44-5.75Q182.69-5.75 184.42-7.53 186.14-9.3 186.14-12.9L186.14-12.9Q186.14-16.45 184.42-18.23 182.69-20 179.44-20ZM231.59 0.25L211.34 0.25Q204.64 0.25 200.89-3.08 197.14-6.4 197.14-12.85L197.14-12.85Q197.14-19.35 200.89-22.68 204.64-26 211.34-26L211.34-26 223.84-26Q228.24-26 230.56-23.93 232.89-21.85 232.89-18L232.89-18Q232.89-10.15 223.84-10.15L223.84-10.15 204.94-10.15Q205.99-5.5 211.34-5.5L211.34-5.5 231.59-5.5 231.59 0.25ZM223.49-20.25L211.34-20.25Q206.19-20.25 204.99-15.9L204.99-15.9 223.49-15.9Q224.49-15.9 225.06-16.5 225.64-17.1 225.64-18.15L225.64-18.15Q225.64-20.25 223.49-20.25L223.49-20.25ZM244.74 0L237.39 0 237.39-25.75 257.09-25.75Q261.44-25.75 263.49-23.58 265.54-21.4 265.54-17.85L265.54-17.85 265.54-12.5 258.19-12.5 258.19-16.95Q258.19-19.95 255.19-19.95L255.19-19.95 244.74-19.95 244.74 0ZM295.78 0L287.78 0 287.78-35.75 317.73-35.75Q323.28-35.75 326.36-32.95 329.43-30.15 329.43-24.45L329.43-24.45Q329.43-18.75 326.36-15.95 323.28-13.15 317.73-13.15L317.73-13.15 295.78-13.15 295.78 0ZM316.78-29.25L316.78-29.25 295.78-29.25 295.78-19.7 316.78-19.65Q318.98-19.65 320.16-20.75 321.33-21.85 321.33-24.45L321.33-24.45Q321.33-27.1 320.16-28.18 318.98-29.25 316.78-29.25ZM340.93 0L333.68 0 333.68-35.75 340.93-35.75 340.93 0ZM368.63 0L354.63 0Q350.23 0 348.2-2.2 346.18-4.4 346.18-7.9L346.18-7.9 346.18-25.75 353.43-25.75 353.43-8.75Q353.43-5.75 356.43-5.75L356.43-5.75 366.83-5.75Q369.83-5.75 369.83-8.75L369.83-8.75 369.83-25.75 377.08-25.75 377.08-7.9Q377.08-4.4 375.05-2.2 373.03 0 368.63 0L368.63 0ZM407.27 0.25L381.47 0.25 381.47-5.5 405.97-5.5Q408.07-5.5 408.07-7.85L408.07-7.85Q408.07-10.15 405.97-10.15L405.97-10.15 390.12-10.15Q385.67-10.15 383.37-12.18 381.07-14.2 381.07-18L381.07-18Q381.07-21.85 383.4-23.93 385.72-26 390.12-26L390.12-26 412.92-26 412.92-20.25 390.47-20.25Q388.32-20.25 388.32-18.15L388.32-18.15Q388.32-17.1 388.92-16.5 389.52-15.9 390.47-15.9L390.47-15.9 407.27-15.9Q411.17-15.9 413.25-13.88 415.32-11.85 415.32-8L415.32-8Q415.32-4.1 413.22-1.93 411.12 0.25 407.27 0.25L407.27 0.25Z" opacity="1" transform="matrix(1,0,0,1,0,0)" fill="white" class="wordmark-text-0" id="SvgjsPath7926"></path></svg></g></svg></g></svg></g></svg></g></svg></g><defs><mask></mask></defs></svg><rect width="395.52" height="45.13643316741532" fill="black" stroke="none" visibility="hidden"></rect></g></mask><linearGradient x1="0" x2="1" y1="0.548" y2="0.55" id="492c41f8-1048-48cb-9c7c-500815da6e38"><stop stop-color="#ff6cab" offset="0"></stop><stop stop-color="#7366ff" offset="1"></stop></linearGradient><rect width="395.52" height="45.13643316741532" fill="url(#492c41f8-1048-48cb-9c7c-500815da6e38)" mask="url(#f36ea8a5-6864-4a7f-a86c-a54de110d4e2)" data-fill-palette-color="primary"></rect></svg><rect width="395.52" height="45.13643316741532" fill="none" stroke="none" visibility="hidden"></rect></g></svg></g></svg>